<svg width="256" height="256" viewBox="0 0 256 256" fill="none" xmlns="http://www.w3.org/2000/svg">
<path d="M39.9201 69.2362C33.1264 62.7587 23.4743 64.8716 18.7392 74.0558C14.6069 82.0717 15.8123 93.1104 21.511 99.318C25.1809 103.316 29.8354 104.604 34.1199 103.459C38.4283 102.302 42.9127 103.332 46.4543 106.709L62.566 122.07C59.9075 129.188 59.4988 137.528 61.644 145.154L40.2065 160.561C36.1667 163.465 31.3093 163.804 27.0666 161.436C21.5946 158.383 15.1022 158.606 9.53468 162.832C0.897036 169.391 -2.46851 183.784 1.92938 195.412C6.85239 208.421 19.1301 213.287 28.7941 206.339C34.2422 202.426 37.6585 195.625 38.5357 188.233C39.2428 182.292 41.9908 177.079 46.0575 174.156L68.6168 157.943C74.408 164.132 82.2222 166.264 89.4426 163.665L107.237 198.216C109.949 203.482 110.385 210.083 108.693 216.021C106.02 225.413 107.043 236.406 112.387 244.996C119.422 256.305 132.049 259.324 141.764 252.056C153.361 243.381 156.736 224.025 149.426 209.833C145.183 201.593 138.309 196.978 131.202 196.604C126.371 196.346 121.878 193.346 119.201 188.145L101.329 153.44C107.33 143.616 108.078 129.543 102.421 118.554C101.517 116.803 100.494 115.215 99.3782 113.796L116.412 69.3673C118.462 64.0195 122.284 60.0444 126.831 58.9879C130.471 58.1397 134.021 56.1347 137.163 52.8844C145.807 43.9393 148.253 27.9345 142.892 15.4113C136.041 -0.59349 119.912 -4.91182 108.717 6.1539C99.7899 14.9795 97.1404 31.2156 102.532 43.9586C102.568 44.0473 102.606 44.1321 102.642 44.2169C105.092 49.8732 105.339 56.6822 103.111 62.4927L86.5813 105.61C81.163 104.593 75.4434 106.05 70.5263 110.28C69.6879 110.997 68.9062 111.783 68.1663 112.612L51.9203 97.1242C48.4563 93.8199 46.2365 88.7497 45.9053 83.2014C45.586 77.8382 43.5333 72.6793 39.9201 69.2362Z" fill="#022179"/>
<path d="M65.8122 203.274C71.0455 198.771 78.1137 200.606 81.5956 207.369C85.0805 214.136 83.6603 223.266 78.427 227.769C73.1907 232.269 66.1255 230.433 62.6406 223.671C59.1586 216.908 60.5759 207.774 65.8122 203.274Z" fill="#6EAFEB"/>
<path d="M135.588 82.5844C140.824 78.0849 147.889 79.9202 151.374 86.683C154.856 93.4458 153.439 102.58 148.202 107.083C142.969 111.583 135.901 109.751 132.419 102.985C128.934 96.2219 130.354 87.0878 135.588 82.5844Z" fill="#6EAFEB"/>
<path d="M9.53169 120.54C13.3716 117.239 18.5572 118.585 21.1142 123.547C23.6712 128.513 22.6299 135.214 18.7869 138.518C14.947 141.823 9.76143 140.473 7.20444 135.511C4.64746 130.545 5.68875 123.844 9.53169 120.54Z" fill="#6EAFEB"/>
<path d="M59.9791 49.7614C63.8191 46.4571 69.0046 47.8028 71.5616 52.765C74.1186 57.7311 73.0773 64.4322 69.2344 67.7365C65.3944 71.0408 60.2089 69.6952 57.6519 64.7291C55.0949 59.7669 56.1362 53.0619 59.9791 49.7614Z" fill="#6EAFEB"/>
<path d="M197.597 188.291C199.223 195.139 204.957 198.894 210.232 196.438C214.836 194.294 217.536 187.859 216.406 181.706C215.678 177.746 213.61 174.715 211.002 173.158C208.38 171.592 206.324 168.785 205.474 165.215L201.616 148.975C205.169 146.561 207.905 142.366 209.078 137.262L225.049 139.949C228.06 140.454 230.727 142.729 232.249 146.118C234.215 150.49 237.709 153.652 241.925 154.23C248.465 155.133 254.593 149.233 255.784 140.874C257.12 131.524 252.111 122.76 244.911 121.546C240.851 120.863 236.993 122.73 234.296 126.184C232.126 128.968 229.101 130.329 226.07 129.82L209.266 126.99C208.078 120.802 204.596 115.732 200.002 113.457L201.055 86.2397C201.216 82.091 202.979 78.3896 205.667 76.1071C209.916 72.502 212.7 66.1826 212.476 58.9494C212.184 49.4336 206.431 41.464 199.106 40.396C190.364 39.1198 182.732 47.6331 182.3 58.8144C182.049 65.3035 184.281 71.2104 187.918 74.9966C190.391 77.5683 191.853 81.4201 191.695 85.5187L190.639 112.855C184.501 115.011 179.853 122.059 179.519 130.715C179.465 132.095 179.525 133.448 179.686 134.763L157.267 149.611C154.567 151.4 151.35 151.566 148.629 149.831C146.451 148.443 143.972 147.707 141.331 147.838C134.066 148.196 127.938 155.406 126.98 164.722C125.76 176.628 132.968 187.046 142.22 186.857C149.599 186.706 155.906 179.473 156.912 170.027C156.918 169.965 156.924 169.9 156.93 169.838C157.347 165.612 159.275 161.895 162.208 159.952L183.964 145.544C186.515 148.817 189.976 150.934 193.849 151.18C194.509 151.223 195.159 151.207 195.801 151.142L199.691 167.517C200.521 171.006 200.163 174.804 198.659 177.9C197.206 180.892 196.731 184.651 197.597 188.291Z" fill="#6EAFEB"/>
<path d="M224.447 104.481C220.323 104.215 217.149 99.6804 217.354 94.3519C217.56 89.0234 221.069 84.921 225.192 85.187C229.316 85.4531 232.49 89.9873 232.285 95.3158C232.079 100.644 228.57 104.747 224.447 104.481Z" fill="#022179"/>
<path d="M229.143 176.554C226.117 176.358 223.787 173.03 223.939 169.121C224.088 165.207 226.666 162.2 229.692 162.393C232.717 162.589 235.047 165.917 234.895 169.826C234.746 173.74 232.168 176.747 229.143 176.554Z" fill="#022179"/>
<path d="M181.124 188.445C178.099 188.249 175.768 184.921 175.918 181.012C176.07 177.102 178.645 174.091 181.673 174.287C184.698 174.48 187.029 177.811 186.876 181.721C186.724 185.631 184.149 188.642 181.124 188.445Z" fill="#022179"/>
</svg>
